<?xml version="1.0" encoding="UTF-8" standalone="no"?>
<svg
   width="128"
   height="128"
   version="1.1"
   id="svg6"
   sodipodi:docname="icon.svg"
   inkscape:version="1.3.2 (091e20ef0f, 2023-11-25)"
   xmlns:inkscape="http://www.inkscape.org/namespaces/inkscape"
   xmlns:sodipodi="http://sodipodi.sourceforge.net/DTD/sodipodi-0.dtd"
   xmlns="http://www.w3.org/2000/svg"
   xmlns:svg="http://www.w3.org/2000/svg">
  <defs
     id="defs6" />
  <sodipodi:namedview
     id="namedview6"
     pagecolor="#ffffff"
     bordercolor="#000000"
     borderopacity="0.25"
     inkscape:showpageshadow="2"
     inkscape:pageopacity="0.0"
     inkscape:pagecheckerboard="0"
     inkscape:deskcolor="#d1d1d1"
     inkscape:zoom="8.7393979"
     inkscape:cx="64.134853"
     inkscape:cy="73.517651"
     inkscape:window-width="2560"
     inkscape:window-height="995"
     inkscape:window-x="0"
     inkscape:window-y="0"
     inkscape:window-maximized="1"
     inkscape:current-layer="svg6" />
  <path
     style="fill:#0e002f;stroke:#9600ff;stroke-width:1;stroke-linecap:round;stroke-linejoin:round;stroke-miterlimit:1;stroke-opacity:1;stroke-dasharray:none"
     id="path6"
     sodipodi:type="arc"
     sodipodi:cx="65.525002"
     sodipodi:cy="105.67955"
     sodipodi:rx="49.316067"
     sodipodi:ry="10.316055"
     sodipodi:start="0"
     sodipodi:end="6.2453843"
     sodipodi:open="true"
     sodipodi:arc-type="arc"
     d="M 114.84107,105.67955 A 49.316067,10.316055 0 0 1 65.991044,115.99514 49.316067,10.316055 0 0 1 16.217743,105.87452 49.316067,10.316055 0 0 1 64.127041,95.36764 49.316067,10.316055 0 0 1 114.80584,105.28969" />
  <path
     style="fill:#0e002f;stroke:#9600ff;stroke-width:1;stroke-linecap:round;stroke-linejoin:round;stroke-miterlimit:1;stroke-dasharray:none;stroke-opacity:1"
     d="M 44.82533,103.25727 68.635302,29.918635 88.045927,103.39338 Z"
     id="path7"
     sodipodi:nodetypes="cccc" />
  <path
     style="fill:#0e002f;fill-opacity:1;stroke:none;stroke-width:1;stroke-linecap:round;stroke-linejoin:round;stroke-miterlimit:1;stroke-dasharray:none;stroke-opacity:1"
     id="path27"
     sodipodi:type="arc"
     sodipodi:cx="66.648865"
     sodipodi:cy="103.5127"
     sodipodi:rx="23.086777"
     sodipodi:ry="2.1798115"
     sodipodi:start="0"
     sodipodi:end="6.2453843"
     sodipodi:open="true"
     sodipodi:arc-type="arc"
     d="m 89.735641,103.5127 a 23.086777,2.1798115 0 0 1 -22.868604,2.17972 23.086777,2.1798115 0 0 1 -23.300825,-2.13852 23.086777,2.1798115 0 0 1 22.428213,-2.22013 23.086777,2.1798115 0 0 1 23.724724,2.09655" />
  <path
     sodipodi:type="star"
     style="fill:#ffd500;fill-opacity:1;stroke:none;stroke-width:1;stroke-linecap:round;stroke-linejoin:round;stroke-miterlimit:1;stroke-dasharray:none;stroke-opacity:1"
     id="path28"
     inkscape:flatsided="false"
     sodipodi:sides="5"
     sodipodi:cx="67.994858"
     sodipodi:cy="69.823013"
     sodipodi:r1="11.457011"
     sodipodi:r2="3.6472526"
     sodipodi:arg1="-1.5405556"
     sodipodi:arg2="-1.0017378"
     inkscape:rounded="0"
     inkscape:randomized="0"
     d="m 68.341273,58.37124 1.618867,8.379296 9.033049,-0.136854 -7.468926,4.128978 2.921522,8.54865 -6.234917,-5.827446 -7.227449,5.42021 3.615535,-7.730539 -7.388331,-5.198775 8.469441,1.049711 z"
     inkscape:transform-center-x="-0.053038607"
     inkscape:transform-center-y="-0.73579534"
     transform="translate(-0.87154989,9.3827974)" />
</svg>
